<?xml version="1.0" encoding="UTF-8" standalone="no"?>
<!-- Created with Inkscape (http://www.inkscape.org/) -->

<svg
   width="100pt"
   height="100pt"
   viewBox="0 0 35.277777 35.277778"
   version="1.1"
   id="svg5"
   inkscape:version="1.1.2 (0a00cf5339, 2022-02-04)"
   sodipodi:docname="ui_icon_alliance.svg"
   xmlns:inkscape="http://www.inkscape.org/namespaces/inkscape"
   xmlns:sodipodi="http://sodipodi.sourceforge.net/DTD/sodipodi-0.dtd"
   xmlns="http://www.w3.org/2000/svg"
   xmlns:svg="http://www.w3.org/2000/svg">
  <sodipodi:namedview
     id="namedview7"
     pagecolor="#797979"
     bordercolor="#000000"
     borderopacity="1"
     inkscape:pageshadow="2"
     inkscape:pageopacity="0"
     inkscape:pagecheckerboard="true"
     inkscape:document-units="pt"
     showgrid="false"
     showguides="false"
     units="pt"
     width="283.46457pt"
     inkscape:showpageshadow="false"
     inkscape:zoom="3.1108586"
     inkscape:cx="86.953486"
     inkscape:cy="87.274941"
     inkscape:window-width="1920"
     inkscape:window-height="1016"
     inkscape:window-x="0"
     inkscape:window-y="27"
     inkscape:window-maximized="1"
     inkscape:current-layer="layer1" />
  <defs
     id="defs2" />
  <g
     inkscape:label="Layer 1"
     inkscape:groupmode="layer"
     id="layer1">
    <path
       style="fill:#fcc7c7;stroke-width:0.0301368;fill-opacity:1"
       d="M 16.95796,35.263141 C 15.710353,35.202741 14.686888,35.052722 13.485477,34.754144 10.885711,34.108042 8.540024,32.89251 6.4552507,31.111088 6.0011922,30.723096 5.1520453,29.880555 4.7363978,29.405604 1.7534327,25.997032 0.1855945,21.576229 0.37068033,17.095676 0.58816674,11.830768 3.1377169,7.05854 7.5100421,3.7322726 8.0309404,3.3359968 8.6412846,2.9162642 8.6966217,2.9162642 c 0.084214,0 0.056126,0.051376 -0.1852437,0.3388141 C 8.1791097,3.6507649 7.9570435,3.9482863 7.5945876,4.483383 6.1291125,6.6468766 5.2089009,8.9276528 4.9317312,11.083364 c -0.066907,0.520374 -0.090286,1.577006 -0.04598,2.078103 0.1689441,1.910752 0.8670307,3.590132 2.1406228,5.149673 0.7210259,0.882912 1.3701813,1.412465 2.2768137,1.857324 1.7752023,0.871047 3.3614223,0.65167 4.5993823,-0.636102 0.460424,-0.478951 0.886794,-1.333215 1.156406,-2.316951 0.434416,-1.585058 0.365702,-3.320764 -0.200999,-5.077256 C 14.598349,11.33344 14.117649,10.270966 13.795416,9.7896182 13.213324,8.9200951 12.359832,8.2011471 11.252496,7.6475612 l -0.40137,-0.2006548 0.924772,-1.022174 c 0.508625,-0.5621957 0.969415,-1.068184 1.023978,-1.1244182 l 0.0992,-0.1022444 0.221226,0.1139449 c 0.666908,0.3435003 1.485522,0.9980844 2.07863,1.6621253 0.258624,0.2895548 0.641295,0.7742564 0.714384,0.9048598 0.05467,0.097689 0.06133,0.029961 0.03167,-0.3219934 -0.10401,-1.2338378 -0.605567,-2.6061218 -1.369622,-3.7473471 l -0.160574,-0.23984 0.09625,-0.1115764 c 0.05294,-0.061367 0.767546,-0.8731726 1.588023,-1.8040124 1.126317,-1.27781897 1.49916,-1.68270036 1.521913,-1.65269539 0.01658,0.02185739 0.714998,0.81696878 1.552051,1.76691429 0.837052,0.9499453 1.526275,1.7387397 1.531607,1.7528764 0.0053,0.014136 -0.07865,0.1719648 -0.186614,0.3507295 -0.264559,0.4380324 -0.642977,1.2277315 -0.831955,1.7361606 -0.25455,0.6848454 -0.428893,1.4485202 -0.496579,2.1751575 l -0.01684,0.1808214 0.068,-0.088304 c 0.756906,-0.982899 1.47515,-1.6711435 2.358405,-2.2598955 0.182328,-0.1215349 0.410584,-0.2652668 0.507235,-0.3194048 0.172118,-0.096409 0.176871,-0.097261 0.23127,-0.041438 0.03055,0.031346 0.482502,0.5375628 1.004344,1.1249233 l 0.948803,1.0679291 -0.249659,0.110613 c -1.126014,0.4988883 -2.204632,1.4723306 -2.903786,2.6206381 -0.547197,0.898731 -1.016372,2.453831 -1.18655,3.932865 -0.05741,0.498979 -0.04824,1.781397 0.01604,2.245199 0.194259,1.401324 0.715892,2.599047 1.450265,3.32995 1.104285,1.099068 2.610635,1.336761 4.141756,0.653544 0.649066,-0.289625 1.514589,-0.877734 1.958357,-1.330672 0.802807,-0.819394 1.564544,-1.961038 2.041677,-3.059938 C 31.247529,12.060834 30.383444,7.8339353 27.046406,3.6601688 26.871684,3.4416371 26.662868,3.192452 26.58237,3.1064238 26.37925,2.8893502 26.393092,2.8244777 26.617994,2.93946 c 0.130762,0.066853 1.051501,0.7505278 1.614014,1.1984513 2.273885,1.810672 3.766768,3.5779633 4.849867,5.7413299 0.94892,1.8953638 1.5149,3.9759108 1.782747,6.5534218 0.189921,1.827593 -0.10241,4.457992 -0.740635,6.664189 -1.051662,3.635382 -3.101888,6.689939 -5.924968,8.827396 -2.186593,1.655548 -4.734767,2.703098 -7.654773,3.146864 -1.063647,0.161646 -2.559488,0.241743 -3.58629,0.192029 z"
       id="path1283" />
  </g>
</svg>
